<?xml version="1.0" encoding="UTF-8" standalone="no"?>
<svg
   xmlns:dc="http://purl.org/dc/elements/1.1/"
   xmlns:cc="http://creativecommons.org/ns#"
   xmlns:rdf="http://www.w3.org/1999/02/22-rdf-syntax-ns#"
   xmlns:svg="http://www.w3.org/2000/svg"
   xmlns="http://www.w3.org/2000/svg"
   xmlns:sodipodi="http://sodipodi.sourceforge.net/DTD/sodipodi-0.dtd"
   xmlns:inkscape="http://www.inkscape.org/namespaces/inkscape"
   viewBox="0 0 1280 1080"
   id="vector"
   version="1.1"
   sodipodi:docname="vector.svg"
   width="1280"
   height="1080"
   inkscape:export-filename="/home/qubit/Downloads/erro.png"
   inkscape:export-xdpi="26.07"
   inkscape:export-ydpi="26.07"
   inkscape:version="0.92.4 (5da689c313, 2019-01-14)">
  <metadata
     id="metadata29">
    <rdf:RDF>
      <cc:Work
         rdf:about="">
        <dc:format>image/svg+xml</dc:format>
        <dc:type
           rdf:resource="http://purl.org/dc/dcmitype/StillImage" />
        <dc:title></dc:title>
      </cc:Work>
    </rdf:RDF>
  </metadata>
  <defs
     id="defs27" />
  <sodipodi:namedview
     pagecolor="#ffffff"
     bordercolor="#666666"
     borderopacity="1"
     objecttolerance="10"
     gridtolerance="10"
     guidetolerance="10"
     inkscape:pageopacity="0"
     inkscape:pageshadow="2"
     inkscape:window-width="1920"
     inkscape:window-height="988"
     id="namedview25"
     showgrid="false"
     inkscape:zoom="0.55660377"
     inkscape:cx="241.75332"
     inkscape:cy="475.65254"
     inkscape:window-x="0"
     inkscape:window-y="27"
     inkscape:window-maximized="1"
     inkscape:current-layer="vector" />
  <g
     id="group_1"
     transform="matrix(53.443015,0,0,45.755001,-7.4541587,-11.035566)">
    <g
       id="group"
       transform="matrix(0.5270911,0,0,0.8035665,-28.31666,-45.84289)">
      <path
         id="path"
         d="m 65.932,73.084 c 0.056,10e-4 0.11,0.004 0.163,0.008 v 0 c 0.195,0.02 0.376,0.057 0.543,0.112 v 0 c 0.884,0.3 1.359,1.133 1.294,2.384 -0.01,0.187 -0.032,0.38 -0.068,0.578 -0.25,0.82 -0.75,1.464 -1.476,1.951 -0.18,0.113 -0.372,0.219 -0.578,0.32 -0.592,0.296 -1.269,0.545 -2.065,0.811 0.593,0.238 1.145,0.546 1.656,0.92 0.138,0.105 0.273,0.214 0.405,0.327 0.678,0.608 1.256,1.284 1.814,2.041 -0.017,0.119 -0.046,0.23 -0.087,0.333 -0.183,0.462 -0.488,0.625 -0.896,0.516 -0.406,-0.548 -0.824,-1.053 -1.291,-1.519 -0.119,-0.116 -0.241,-0.228 -0.366,-0.336 -1.104,-0.93 -2.416,-1.485 -3.969,-1.64 -0.114,-0.089 -0.166,-0.217 -0.152,-0.389 0.03,-0.36 0.243,-0.631 0.648,-0.788 0.09,-0.035 0.182,-0.056 0.275,-0.063 0.475,-0.121 0.92,-0.235 1.344,-0.354 1.288,-0.36 2.235,-0.722 2.919,-1.346 0.242,-0.22 0.443,-0.471 0.601,-0.756 0.021,-0.041 0.042,-0.082 0.061,-0.124 0.042,-0.147 0.066,-0.291 0.073,-0.43 0.012,-0.22 -0.014,-0.422 -0.076,-0.603 C 66.65,74.89 66.571,74.756 66.466,74.638 66.38,74.54 66.282,74.461 66.173,74.4 v 0 c -0.19,-0.1 -0.413,-0.145 -0.67,-0.135 -0.12,0.017 -0.233,0.038 -0.336,0.063 -1.285,0.311 -1.977,1.13 -2.1,2.167 -0.143,0.238 -0.379,0.408 -0.708,0.527 -0.348,0.126 -0.57,0.086 -0.671,-0.131 0.017,-0.406 0.167,-0.863 0.446,-1.377 0.278,-0.51 0.639,-0.959 1.081,-1.329 -0.158,-0.037 -0.317,-0.072 -0.477,-0.103 -0.712,0.279 -1.451,0.602 -2.19,0.959 -0.005,-0.384 10e-4,-0.769 0,-1.151 1.879,-0.925 3.669,-1.642 5.367,-2.088 0.172,-0.043 0.342,-0.083 0.512,-0.12 0.619,-0.15 1.217,-0.281 1.795,-0.39 0.083,0.454 0.149,0.911 0.198,1.369 -0.577,0.076 -1.179,0.174 -1.807,0.292 -0.173,0.029 -0.347,0.061 -0.523,0.096 -0.052,0.011 -0.105,0.023 -0.158,0.035 z m 1.639,-1.63 c -0.371,0.078 -0.751,0.164 -1.139,0.257 -0.037,0.008 -0.075,0.017 -0.113,0.025 -0.077,-0.422 -0.288,-0.728 -0.608,-0.897 v 0 c -0.488,-0.248 -1.216,-0.184 -2.21,0.237 -0.9,0.38 -1.022,0.464 -1.024,0.464 -1.624,0.583 -2.538,0.949 -3.029,0.993 -0.694,0.05 -1.005,-0.405 -0.944,-1.416 0.01,-0.246 0.232,-0.473 0.642,-0.686 0.306,-0.159 0.46,-0.161 0.458,0.006 0.004,0.596 0.26,0.861 0.83,0.794 0.41,-0.049 1.03,-0.292 1.83,-0.696 1.312,-0.656 1.899,-0.909 1.806,-0.878 0.431,-0.164 0.836,-0.248 1.221,-0.248 v 0 c 0.193,0.002 0.38,0.026 0.562,0.071 v 0 c 0.132,0.033 0.261,0.079 0.387,0.136 0.7,0.316 1.167,0.955 1.331,1.838 z"
         inkscape:connector-curvature="0"
         style="fill:#f42a41" />
      <path
         id="path_1"
         d="m 76.215,69.186 c 0.014,0.112 0.021,0.213 0.019,0.303 -0.011,0.477 -0.192,0.68 -0.537,0.624 -0.094,-0.015 0,0 0,0 -0.732,-1.446 -1.872,-2.466 -2.839,-2.839 -0.378,-0.149 -0.762,-0.209 -1.141,-0.181 -0.243,0.018 -0.496,0.069 -0.754,0.153 -0.161,0.051 -0.325,0.115 -0.491,0.192 -0.803,0.605 -1.058,1.344 -0.879,2.129 0.111,0.488 0.36,0.946 0.733,1.43 0.39,-0.034 0.768,-0.052 1.135,-0.054 0.06,0.51 0.106,1.02 0.139,1.53 -0.291,-0.014 -0.59,-0.017 -0.898,-0.012 0.252,3.075 -0.082,6.163 -1,9.265 -0.091,0.306 -0.337,0.412 -0.741,0.332 -0.344,-0.067 -0.462,-0.251 -0.362,-0.562 0.979,-3.038 1.326,-6.032 1.04,-8.982 -0.459,0.037 -0.936,0.09 -1.431,0.159 -0.048,-0.449 -0.113,-0.896 -0.196,-1.34 0.363,-0.071 0.719,-0.134 1.066,-0.186 -0.319,-0.38 -0.54,-0.806 -0.668,-1.31 -0.255,-1.006 -0.142,-1.969 0.476,-2.877 0.484,-0.55 1.046,-0.959 1.702,-1.181 0.245,-0.083 0.501,-0.14 0.765,-0.168 0.429,-0.045 0.854,-0.018 1.268,0.08 1.499,0.351 2.745,1.576 3.594,3.495 z"
         inkscape:connector-curvature="0"
         style="fill:#f42a41" />
      <path
         id="path_2"
         d="m 79.473,73.744 c -0.279,-0.07 -0.562,-0.139 -0.847,-0.208 -0.271,3.337 -0.352,6.713 -0.244,10.129 0.017,0.553 -0.155,0.808 -0.535,0.749 -0.361,-0.057 -0.538,-0.353 -0.535,-0.88 0.01,-1.834 0.048,-3.662 0.115,-5.484 -0.009,-0.035 -0.019,-0.07 -0.028,-0.104 0,0 0,0 0,0 -0.347,-1.275 -0.693,-1.953 -1.078,-2.03 -0.304,-0.061 -0.57,0.296 -0.813,1.064 -0.085,0.125 -0.221,0.168 -0.41,0.129 -0.188,-0.038 -0.324,-0.149 -0.407,-0.332 -0.127,-0.934 -0.462,-1.447 -0.981,-1.529 -0.158,-0.025 -0.303,-0.004 -0.435,0.062 0,0 0,0 0,0 -0.253,0.126 -0.456,0.421 -0.622,0.881 -0.064,0.243 -0.106,0.484 -0.124,0.722 -0.045,0.612 0.049,1.125 0.303,1.558 0.064,0.108 0.134,0.204 0.207,0.286 0.217,0.236 0.473,0.36 0.765,0.366 0.19,0.156 0.272,0.389 0.242,0.696 -0.035,0.364 -0.158,0.605 -0.368,0.723 -0.087,-0.007 -0.175,-0.021 -0.265,-0.042 -0.201,-0.046 -0.388,-0.123 -0.559,-0.23 -0.361,-0.233 -0.648,-0.599 -0.87,-1.097 -0.224,-0.511 -0.341,-1.046 -0.368,-1.616 0,0 0,0 0,0 0,0 0,0 0,0 0,0 0,0 0,0 0,0 0,0 0,0 -0.011,-0.251 -0.005,-0.507 0.016,-0.771 0.021,-0.25 0.057,-0.492 0.108,-0.726 0,0 0,0 0,0 0,0 0,0 0,0 0.071,-0.33 0.173,-0.648 0.306,-0.955 0.333,-0.789 0.734,-1.26 1.253,-1.378 0,0 0,0 0,0 0.145,-0.035 0.299,-0.042 0.461,-0.02 0.574,0.076 1.054,0.54 1.416,1.385 0.395,-0.607 0.788,-0.874 1.181,-0.796 0.381,0.075 0.764,0.481 1.15,1.208 0,0 0,0 0,0 0.01,0.019 0.02,0.037 0.03,0.056 0.038,-0.749 0.081,-1.497 0.129,-2.245 -0.011,-0.002 -0.022,-0.005 -0.033,-0.007 0,0 0,0 0,0 -1.435,-0.305 -2.9,-0.592 -4.349,-0.727 -0.512,-0.054 -1.03,-0.091 -1.552,-0.101 0,0 0,0 0,0 -0.147,-0.009 -0.296,-0.015 -0.447,-0.018 -0.036,-0.504 -0.086,-1.009 -0.15,-1.513 0.157,-0.005 0.311,-0.007 0.464,-0.006 0,0 0,0 0,0 0.543,-0.014 1.083,0.002 1.617,0.041 1.511,0.092 3.038,0.373 4.527,0.703 0,0 0,0 0,0 0.648,0.148 1.282,0.31 1.905,0.48 -0.065,0.524 -0.123,1.05 -0.175,1.577 z"
         inkscape:connector-curvature="0"
         style="fill:#f42a41" />
      <path
         id="path_3"
         d="m 86.342,75.797 c -0.259,-0.081 -0.52,-0.163 -0.782,-0.246 -0.667,2.573 -0.349,5.217 0.954,7.932 0.128,0.266 0.045,0.448 -0.282,0.526 -0.383,0.092 -0.638,-0.016 -0.753,-0.303 -0.969,-2.438 -1.313,-4.815 -1.03,-7.131 0.04,-0.328 -0.047,-0.663 -0.275,-1.022 -0.246,-0.376 -0.559,-0.634 -0.95,-0.755 -0.255,-0.079 -0.505,-0.036 -0.741,0.138 -0.281,0.196 -0.442,0.539 -0.472,1.018 -0.047,0.641 0.085,1.135 0.36,1.459 0.199,0.242 0.551,0.454 1.05,0.627 0.077,0.079 0.113,0.239 0.119,0.486 0.009,0.378 -0.031,0.64 -0.141,0.791 -0.565,-0.119 -0.984,-0.306 -1.252,-0.548 -0.303,-0.258 -0.565,-0.699 -0.761,-1.326 -0.254,0.655 -0.529,1.082 -0.867,1.269 -0.204,0.095 -0.528,0.136 -0.968,0.117 0,0 0,0 0,0 -0.068,-0.003 -0.139,-0.007 -0.213,-0.013 -0.127,-0.198 -0.188,-0.446 -0.181,-0.743 0.007,-0.289 0.065,-0.532 0.17,-0.726 0.088,0.008 0.173,0.009 0.255,0.003 0.275,-0.02 0.525,-0.122 0.752,-0.3 0.293,-0.237 0.484,-0.588 0.583,-1.054 0.056,-0.372 0.033,-0.733 -0.075,-1.088 -0.131,-0.418 -0.314,-0.711 -0.559,-0.878 -0.09,-0.058 -0.243,-0.122 -0.458,-0.189 -0.105,-0.032 -0.227,-0.066 -0.363,-0.1 -0.15,-0.038 -0.205,-0.331 -0.147,-0.878 0.054,-0.51 0.164,-0.742 0.322,-0.699 0.136,0.037 0.261,0.074 0.376,0.11 0,0 0,0 0,0 0.4,0.13 0.674,0.257 0.816,0.369 0.377,0.325 0.635,0.891 0.818,1.696 0.297,-0.437 0.588,-0.715 0.849,-0.846 0.265,-0.13 0.602,-0.157 1.008,-0.082 0.276,0.051 0.548,0.218 0.814,0.489 0.267,0.266 0.45,0.547 0.558,0.844 0.288,-0.444 0.621,-0.589 0.942,-0.465 0.317,0.122 0.632,0.245 0.945,0.367 -0.168,0.382 -0.308,0.766 -0.421,1.151 z"
         inkscape:connector-curvature="0"
         style="fill:#f42a41" />
    </g>
    <path
       id="path_4"
       d="m 2.374,21.914 c 0,0.002 0,0.004 0,0.007 0,0.007 0,0.015 0,0.022 0,0.008 0,0.015 0,0.022 0,0 10e-4,0.001 10e-4,0.001 v -0.052 c 0,0 -10e-4,0 -10e-4,0 z"
       inkscape:connector-curvature="0"
       style="fill:#b3b3b3" />
    <path
       id="path_5"
       d="m 22.665,13.619 c 0,0 0,10e-4 0,10e-4 0.001,0.003 0.003,0.005 0.005,0.007 -0.001,-0.002 -0.002,-0.005 -0.003,-0.008 0,0 -0.001,0 -0.002,0 z"
       inkscape:connector-curvature="0"
       style="fill:#4f4f4f" />
    <path
       id="path_6"
       d="m 23.108,13.54 c -0.001,0.001 -0.001,0.001 -0.003,0.002 -0.001,0 -0.003,0.003 -0.002,0.002 0.002,-0.001 0.004,-0.002 0.005,-0.004 z"
       inkscape:connector-curvature="0"
       style="fill:#4f4f4f" />
    <path
       id="path_7"
       d="m 23.614,13.544 c 0,-0.001 0,-0.001 0,10e-4 -0.001,0.006 -0.001,0.013 -0.002,0.02 0.001,-10e-4 0.001,-10e-4 0.001,-10e-4 0.003,-0.004 0.002,-0.016 0.001,-0.02 z"
       inkscape:connector-curvature="0"
       style="fill:#4f4f4f" />
    <path
       id="path_8"
       d="m 22.988,13.556 c -0.004,0 -0.007,0.001 -0.001,0.01 0.003,-0.005 0.006,-0.007 0.008,-0.01 -0.002,0 -0.004,0 -0.007,0 z"
       inkscape:connector-curvature="0"
       style="fill:#4f4f4f" />
    <path
       id="path_9"
       d="m 3.598,13.533 c -0.374,0.241 -0.732,0.575 -1.116,0.901 -0.203,0.173 -0.479,0.393 -0.611,0.49 -0.247,0.18 -0.553,0.506 -0.942,1.001 -0.119,0.152 -0.247,0.313 -0.284,0.358 -0.128,0.157 -0.133,0.469 -0.015,0.938 0.02,0.078 0.007,0.095 -0.074,0.095 -0.054,0 -0.107,-0.025 -0.118,-0.054 -0.011,-0.03 -0.047,-0.055 -0.079,-0.055 -0.042,0 -0.064,0.052 -0.075,0.177 -0.015,0.157 0.003,0.211 0.165,0.492 0.1,0.173 0.305,0.457 0.456,0.631 0.402,0.464 1.41,1.324 1.921,1.638 0.245,0.15 0.532,0.332 0.638,0.403 0.04,0.026 0.083,0.062 0.137,0.098 z m -1.145,2.192 c 0.126,0 0.228,0.172 0.228,0.385 0,0.212 -0.102,0.384 -0.228,0.384 -0.125,0 -0.227,-0.172 -0.227,-0.384 0,-0.213 0.102,-0.385 0.227,-0.385 z"
       inkscape:connector-curvature="0"
       style="fill:#006a4e" />
    <path
       id="path_10"
       d="m 23.788,13.544 c -0.072,10e-4 -0.225,0.024 -0.551,0.072 -0.686,0.1 -1.865,0.438 -2.72,0.781 -0.878,0.35 -1.106,0.411 -1.39,0.371 -0.341,-0.049 -0.715,-0.192 -1.635,-0.661 v 5.542 c 0.402,-0.499 0.779,-0.91 0.988,-1.057 0.1,-0.07 0.189,-0.157 0.198,-0.194 0.023,-0.104 -0.362,-0.469 -0.427,-0.405 -0.044,0.044 -0.045,0.053 -0.004,0.06 0.026,0.004 0.056,0.006 0.067,0.004 0.01,-10e-4 0.018,0.031 0.018,0.072 0,0.064 -0.009,0.064 -0.062,10e-4 -0.035,-0.041 -0.083,-0.061 -0.107,-0.045 -0.033,0.021 -0.027,0.055 0.028,0.135 l 0.072,0.107 -0.107,-0.099 c -0.149,-0.137 -0.215,-0.266 -0.164,-0.319 0.026,-0.028 0.031,-0.018 0.014,0.029 -0.017,0.046 -0.011,0.061 0.019,0.044 0.024,-0.013 0.044,-0.051 0.044,-0.084 0,-0.032 0.01,-0.075 0.022,-0.095 0.028,-0.047 0.016,0.089 -0.015,0.173 -0.013,0.035 -0.012,0.077 0.003,0.092 0.031,0.032 0.107,-0.04 0.113,-0.108 0.002,-0.026 0.024,-0.04 0.049,-0.031 0.024,0.01 0.02,0.092 0.01,0.064 -0.028,-0.076 0.111,-0.215 0.366,-0.215 0.335,0 0.635,0.088 0.996,0.292 0.178,0.1 0.679,0.358 1.113,0.573 0.434,0.216 0.898,0.451 1.03,0.523 0.133,0.072 0.503,0.227 0.821,0.344 1.256,0.461 1.26,0.462 1.148,0.143 -0.263,-0.755 -0.709,-1.573 -1.115,-2.049 -0.097,-0.113 -0.253,-0.297 -0.346,-0.408 -0.168,-0.199 -0.762,-0.694 -0.878,-0.732 -0.033,-0.011 0.114,-0.084 0.327,-0.163 0.624,-0.23 1.256,-0.812 1.601,-1.472 0.254,-0.486 0.535,-1.125 0.535,-1.215 0,-0.047 0.01,-0.07 -0.061,-0.07 z"
       inkscape:connector-curvature="0"
       style="fill:#006a4e" />
    <path
       id="path_11"
       d="m 9.778,21.204 c -0.001,10e-4 0,10e-4 0.005,-0.002 -0.015,0.02 -0.029,0.038 -0.044,0.056 -0.005,0.007 -0.011,0.011 -0.015,0.019 -10e-4,0 0.002,0 10e-4,0 -0.002,0.006 -0.004,0.011 -0.007,0.016 -0.003,0.005 -0.005,0.01 -0.008,0.015 -0.009,0.014 -0.02,0.023 -0.029,0.035 0,0.003 -0.002,0.006 -0.004,0.009 -0.01,0.024 -0.023,0.039 -0.038,0.054 -10e-4,0.003 -0.002,0.006 -0.003,0.008 -0.007,0.019 -0.007,0.017 -0.015,0.03 -0.003,0.003 -0.006,0.005 -0.009,0.009 0,0 10e-4,0.002 10e-4,0.003 -0.003,0.005 -0.015,0.026 -0.018,0.031 -0.01,0.015 -0.014,0.01 -0.009,0.014 -0.01,0.028 -0.029,0.043 -0.044,0.061 -0.002,0.003 -0.005,0.006 -0.008,0.01 l 0.005,-0.005 c 0,0 10e-4,0 0,0 -0.005,0.021 -0.012,0.03 -0.024,0.042 10e-4,-0.002 -0.001,10e-4 -0.002,0.002 0,0.002 -10e-4,0.005 -0.002,0.007 -0.002,0.006 -0.004,0.011 -0.007,0.016 -0.003,0.006 -0.006,0.01 -0.009,0.015 -0.012,0.009 -0.021,0.022 -0.031,0.035 -0.004,0.005 -0.008,0.01 -0.012,0.015 -0.007,0.03 -0.024,0.04 -0.038,0.059 0,0 -0.002,0.001 -0.003,0.003 0.002,0.003 -0.002,0.007 -0.003,0.011 -0.007,0.018 -0.007,0.016 -0.017,0.03 0.005,-0.007 0,-0.001 -0.006,0.005 -10e-4,0.005 -0.008,0.021 -0.008,0.021 -0.004,0.007 -0.008,0.012 -0.012,0.018 -0.014,0.015 -0.027,0.03 -0.04,0.047 -0.009,0.012 -0.019,0.023 -0.028,0.034 -0.009,0.012 -0.018,0.023 -0.027,0.034 -0.009,0.011 -0.017,0.022 -0.026,0.032 -0.002,0.017 -0.009,0.026 -0.017,0.037 0.006,0 -0.013,0.027 -0.014,0.028 0,0 0,0.001 -10e-4,0.001 -10e-4,0.004 -0.002,0.009 -0.003,0.013 0.009,0.004 0.017,0.01 0.025,0.02 0.023,0.03 0.113,0.148 0.2,0.262 0.188,0.247 0.933,1.07 1.075,1.189 0.056,0.045 0.111,0.07 0.125,0.053 0.114,-0.142 -0.153,-2.157 -0.328,-2.474 -0.049,-0.089 -0.101,-0.104 -0.242,-0.07 l -0.16,0.038 c 0,0.001 -10e-4,0.001 -10e-4,0.002 -0.002,0.002 -0.005,0 -0.007,0.001 -0.001,0.001 -0.002,0.002 -0.003,0.003 10e-4,0 10e-4,-0.001 10e-4,0 -0.012,0.007 -0.005,0.003 -0.006,0.003 -0.003,0.015 -0.011,0.029 -0.025,0.04 H 9.862 c -0.009,0.006 -0.048,0.035 -0.06,0.045 -0.025,0.021 0.004,0 -0.019,0.017 -10e-4,0.001 -0.003,0.002 -0.005,0.003 z"
       inkscape:connector-curvature="0"
       style="fill:#006a4e" />
    <path
       id="path_12"
       d="m 10.358,8.277 v 0 C 10.338,8.286 10.246,8.455 10.145,8.672 9.943,9.106 9.741,9.659 9.478,10.495 l -0.65,0.916 3.104,0.351 0.135,0.011 c -0.059,-0.024 0.037,-0.058 0.507,-0.202 0.252,-0.076 0.452,-0.15 0.443,-0.164 -0.008,-0.013 -0.062,-0.033 -0.12,-0.044 -0.32,-0.062 -0.984,-0.617 -1.353,-1.131 -0.35,-0.488 -0.976,-1.491 -1.071,-1.715 -0.05,-0.118 -0.1,-0.225 -0.112,-0.24 0,0 -0.001,-10e-4 -0.003,0 z"
       inkscape:connector-curvature="0"
       style="fill:#006a4e" />
    <path
       id="path_13"
       d="m 18.194,18.263 c -0.064,-0.06 -0.086,-0.082 -0.114,-0.114 -0.075,-0.085 -0.113,-0.163 -0.102,-0.21 0.003,-0.014 0.012,-0.029 0.024,-0.038 0.016,-0.013 0.017,-0.007 0.004,0.032 -0.011,0.035 -0.013,0.044 -0.008,0.052 0.004,0.006 0.008,0.006 0.02,0.002 0.014,-0.006 0.026,-0.018 0.036,-0.034 0.01,-0.018 0.015,-0.034 0.016,-0.058 0.001,-0.021 0.004,-0.041 0.009,-0.057 0.007,-0.028 0.019,-0.049 0.024,-0.042 0.003,0.004 0.004,0.019 0.002,0.041 -0.003,0.037 -0.01,0.073 -0.024,0.122 -0.013,0.042 -0.013,0.044 -0.014,0.063 -0.001,0.024 0.002,0.037 0.012,0.047 0.031,0.03 0.104,-0.037 0.113,-0.104 0.003,-0.025 0.015,-0.037 0.034,-0.037 0.012,0 0.019,0.003 0.022,0.01 l 0.003,0.005 -0.002,0.014 c -0.003,0.012 -0.003,0.016 -10e-4,0.025 10e-4,0.008 10e-4,0.012 0,0.012 -0.001,0.001 -0.008,0.008 -0.015,0.016 -0.019,0.021 -0.021,0.031 -0.009,0.037 0.007,0.005 0.042,0.01 0.069,0.012 0.013,0 0.025,0.002 0.027,0.003 0.007,0.007 0.012,0.041 0.011,0.077 -0.001,0.028 -0.003,0.036 -0.01,0.036 -0.008,0 -0.017,-0.007 -0.042,-0.036 -0.026,-0.028 -0.038,-0.039 -0.057,-0.049 -0.017,-0.009 -0.027,-0.012 -0.042,-0.01 -0.013,0 -0.016,0.002 -0.023,0.008 -0.019,0.016 -0.02,0.037 -0.002,0.074 0.009,0.019 0.019,0.036 0.062,0.099 0.019,0.028 0.035,0.052 0.035,0.053 0,0.002 -0.006,-0.003 -0.058,-0.051 z"
       inkscape:connector-curvature="0"
       style="fill:#4d4d4d" />
    <path
       id="path_14"
       d="M 18.211,18.277 C 18.128,18.2 18.1,18.172 18.067,18.132 18.01,18.063 17.977,18 17.977,17.957 c 0,-0.016 0.003,-0.027 0.011,-0.039 0.007,-0.01 0.019,-0.021 0.023,-0.021 0.005,0 0.004,0.006 -0.006,0.039 -0.01,0.033 -0.011,0.043 -0.007,0.05 0.008,0.013 0.038,-0.005 0.055,-0.031 0.01,-0.017 0.016,-0.036 0.018,-0.061 0.003,-0.036 0.008,-0.061 0.018,-0.082 0.01,-0.023 0.016,-0.021 0.016,0.005 0,0.038 -0.006,0.075 -0.025,0.141 -0.012,0.042 -0.012,0.044 -0.013,0.064 -0.001,0.031 0.004,0.044 0.019,0.052 0.014,0.008 0.042,-0.003 0.064,-0.026 0.022,-0.023 0.036,-0.049 0.042,-0.081 0.006,-0.028 0.015,-0.037 0.036,-0.037 0.011,0 0.017,0.003 0.021,0.011 0.001,0.003 0.001,0.006 -10e-4,0.016 -0.001,0.008 -0.002,0.016 -0.001,0.024 v 0.013 l -0.01,0.011 c -0.035,0.037 -0.028,0.046 0.039,0.053 0.04,0.004 0.044,0.004 0.047,0.012 0.005,0.011 0.007,0.034 0.007,0.066 -10e-4,0.034 -0.002,0.038 -0.011,0.037 -0.006,0 -0.014,-0.007 -0.04,-0.035 -0.044,-0.047 -0.067,-0.06 -0.099,-0.058 -0.014,0 -0.017,0.001 -0.023,0.007 -0.015,0.013 -0.019,0.03 -0.011,0.054 0.007,0.024 0.016,0.039 0.062,0.107 0.038,0.057 0.039,0.059 0.037,0.059 -0.001,0 -0.016,-0.013 -0.034,-0.03 z"
       inkscape:connector-curvature="0"
       style="fill:#4d4d4d" />
    <path
       id="path_15"
       d="m 17.492,18.312 v -1.333 h 1.017 1.018 v 0.521 0.521 l -0.004,-0.002 c -0.002,-10e-4 -0.02,-0.01 -0.04,-0.02 -0.243,-0.123 -0.468,-0.192 -0.697,-0.214 -0.049,-0.005 -0.122,-0.008 -0.162,-0.008 -0.129,0 -0.24,0.032 -0.313,0.092 -0.024,0.019 -0.038,0.035 -0.049,0.055 l -0.009,0.016 -0.004,-0.005 c -0.012,-0.015 -0.04,-0.012 -0.051,0.006 -0.003,0.005 -0.005,0.011 -0.007,0.023 -0.004,0.021 -0.01,0.037 -0.021,0.054 -0.022,0.035 -0.05,0.056 -0.073,0.056 -0.01,0 -0.019,-0.006 -0.024,-0.018 -0.003,-0.007 -0.004,-0.012 -0.005,-0.028 l -0.001,-0.02 v 0.017 c 0,0.024 0.003,0.036 0.014,0.045 0.014,0.012 0.033,0.008 0.058,-0.012 0.029,-0.024 0.047,-0.056 0.054,-0.094 0.002,-0.015 0.01,-0.028 0.018,-0.031 0.007,-0.004 0.026,-0.004 0.031,-0.001 0.002,0.001 0.005,0.005 0.006,0.007 0.002,0.005 0.002,0.006 0,0.018 -0.001,0.008 -0.002,0.017 -0.001,0.025 l 0.001,0.012 -0.01,0.01 c -0.012,0.012 -0.022,0.027 -0.022,0.033 0,0.011 0.017,0.016 0.062,0.021 0.038,0.003 0.042,0.004 0.045,0.011 0.005,0.012 0.007,0.035 0.007,0.067 -10e-4,0.034 -0.002,0.038 -0.01,0.037 -0.007,0 -0.015,-0.007 -0.042,-0.036 -0.028,-0.029 -0.039,-0.039 -0.057,-0.048 -0.01,-0.006 -0.018,-0.008 -0.027,-0.009 l -0.013,-10e-4 0.012,0.002 c 0.014,0.003 0.029,0.01 0.043,0.02 0.014,0.009 0.023,0.018 0.044,0.042 0.031,0.035 0.043,0.042 0.049,0.027 0.003,-0.007 0.003,-0.01 0.003,-0.039 0,-0.035 -0.002,-0.053 -0.009,-0.067 -0.004,-0.007 -0.004,-0.008 -0.014,-0.007 -0.006,0 -0.021,0 -0.034,-0.002 -0.041,-0.004 -0.057,-0.009 -0.057,-0.018 0,-0.005 0.009,-0.018 0.021,-0.031 0.009,-0.009 0.012,-0.011 0.013,-0.009 0.003,0.005 0.005,0.003 0.006,-0.003 0.001,-0.005 0.002,-0.006 0.008,-0.007 0.017,-0.003 0.051,0.009 0.09,0.034 0.119,0.074 0.278,0.241 0.312,0.328 0.017,0.041 0.013,0.056 -0.023,0.098 -0.037,0.044 -0.089,0.089 -0.168,0.146 -0.041,0.03 -0.11,0.087 -0.153,0.126 -0.203,0.188 -0.473,0.487 -0.779,0.863 -0.028,0.035 -0.052,0.063 -0.052,0.063 -10e-4,0 -10e-4,-0.6 -10e-4,-1.333 z m 0.77,0.013 c 0,0 -0.016,-0.024 -0.036,-0.053 -0.047,-0.071 -0.056,-0.085 -0.066,-0.104 -0.021,-0.04 -0.022,-0.06 -0.003,-0.077 0.004,-0.004 0.011,-0.008 0.016,-0.009 l 0.008,-0.003 -0.009,0.002 c -0.016,0.002 -0.03,0.019 -0.03,0.039 0,0.023 0.016,0.053 0.069,0.133 0.019,0.029 0.035,0.053 0.034,0.054 0,0.001 -0.012,-0.009 -0.06,-0.054 -0.077,-0.073 -0.109,-0.106 -0.143,-0.153 -0.05,-0.068 -0.073,-0.127 -0.063,-0.164 0.003,-0.01 0.013,-0.025 0.023,-0.033 0.008,-0.007 0.012,-0.008 0.012,-0.002 0,0.002 -0.004,0.018 -0.009,0.035 -0.01,0.034 -0.011,0.044 -0.006,0.051 0.01,0.012 0.041,-0.008 0.057,-0.037 0.009,-0.018 0.013,-0.032 0.016,-0.062 0.003,-0.041 0.014,-0.079 0.025,-0.09 0.006,-0.005 0.008,0 0.008,0.022 0,0.036 -0.006,0.07 -0.025,0.139 -0.007,0.024 -0.012,0.045 -0.011,0.046 0,0.002 0,0.002 0.001,-10e-4 0,-0.002 0.004,-0.019 0.01,-0.038 0.018,-0.057 0.027,-0.107 0.027,-0.146 0,-0.018 0,-0.02 -0.003,-0.024 -0.003,-0.004 -0.004,-0.004 -0.007,-10e-4 -0.013,0.01 -0.025,0.053 -0.028,0.095 -10e-4,0.028 -0.006,0.044 -0.017,0.062 -0.015,0.026 -0.046,0.044 -0.053,0.032 -0.004,-0.006 -0.002,-0.014 0.008,-0.048 0.006,-0.018 0.01,-0.034 0.01,-0.036 -0.001,-0.002 -0.002,-0.005 -0.003,-0.007 -0.004,-0.003 -0.023,0.013 -0.03,0.026 -0.031,0.053 0.02,0.157 0.133,0.273 0.009,0.009 0.029,0.029 0.046,0.044 0.016,0.015 0.045,0.042 0.063,0.059 0.032,0.03 0.036,0.033 0.036,0.031 z"
       inkscape:connector-curvature="0"
       style="fill:#4d4d4d" />
    <path
       id="path_16"
       d="m 17.492,18.312 v -1.333 h 1.017 1.018 v 0.522 c 0,0.495 0,0.521 -0.003,0.519 -0.001,0 -0.02,-0.01 -0.042,-0.021 -0.241,-0.122 -0.462,-0.191 -0.684,-0.213 -0.14,-0.014 -0.242,-0.012 -0.321,0.006 -0.099,0.023 -0.183,0.075 -0.216,0.134 l -0.008,0.014 -0.004,-0.005 c -0.008,-0.01 -0.025,-0.013 -0.038,-0.006 -0.011,0.005 -0.017,0.016 -0.02,0.034 -0.006,0.036 -0.024,0.068 -0.053,0.093 -0.008,0.006 -0.012,0.011 -0.01,0.01 0.012,-0.006 0.034,-0.029 0.046,-0.05 0.009,-0.016 0.014,-0.029 0.018,-0.048 0.003,-0.017 0.006,-0.025 0.012,-0.031 0.011,-0.011 0.036,-0.01 0.043,10e-4 0.003,0.006 0.003,0.007 0.002,0.015 -10e-4,0.005 -0.002,0.01 -10e-4,0.011 0,0.002 10e-4,0.001 10e-4,-10e-4 0,-0.003 0.001,-0.008 0.002,-0.011 l 0.002,-0.006 0.002,0.008 c 0.001,0.005 0.003,0.014 0.003,0.02 0.001,0.01 0.001,0.011 -0.002,0.014 -0.004,0.004 -0.005,0.003 -0.008,-0.009 l -0.002,-0.012 0.001,0.014 0.001,0.013 -0.014,0.015 c -0.015,0.016 -0.019,0.025 -0.017,0.031 0.001,0.002 0.002,0.004 0.003,0.005 0.002,0 0.001,0 0,-0.002 -10e-4,-10e-4 -0.002,-0.004 -0.002,-0.006 0,-0.005 0.011,-0.021 0.022,-0.032 0.008,-0.008 0.011,-0.01 0.012,-0.007 0.003,0.003 0.007,-0.001 0.007,-0.006 0,-0.008 0.025,-0.006 0.049,0.003 0.103,0.041 0.303,0.234 0.354,0.342 0.02,0.041 0.02,0.06 0.002,0.086 -0.032,0.046 -0.095,0.103 -0.182,0.167 -0.018,0.013 -0.046,0.034 -0.063,0.048 -0.196,0.157 -0.516,0.504 -0.885,0.957 -0.022,0.028 -0.041,0.05 -0.041,0.05 -10e-4,0 -10e-4,-0.6 -10e-4,-1.333 z m 0.77,0.014 c 0,-0.001 -0.019,-0.029 -0.041,-0.062 -0.048,-0.071 -0.065,-0.099 -0.072,-0.12 -0.003,-0.009 -0.005,-0.014 -0.005,-0.013 0,0.001 0.002,0.008 0.004,0.015 0.006,0.017 0.029,0.056 0.068,0.114 0.016,0.025 0.03,0.046 0.029,0.047 -0.001,0.002 -0.048,-0.042 -0.107,-0.099 -0.099,-0.095 -0.161,-0.192 -0.161,-0.251 0,-0.016 0.003,-0.027 0.011,-0.039 0.007,-0.01 0.019,-0.021 0.024,-0.021 0.004,0 0.003,0.007 -0.005,0.032 C 18.003,17.942 18,17.953 18,17.953 c 0.001,0.002 0.012,-0.033 0.015,-0.045 0.004,-0.021 -0.004,-0.02 -0.025,0.002 -0.016,0.018 -0.019,0.046 -0.01,0.079 0.017,0.062 0.074,0.143 0.158,0.223 0.03,0.029 0.121,0.114 0.123,0.114 0,0 0.001,0 0.001,0 z m 0.065,-0.153 c 0.011,-0.014 0.005,-0.102 -0.007,-0.113 -0.001,-10e-4 -0.01,-0.002 -0.018,-0.002 h -0.015 l 0.016,0.002 c 0.018,0.002 0.02,0.004 0.024,0.022 0.003,0.018 0.004,0.081 0,0.087 -0.006,0.01 -0.015,0.004 -0.047,-0.029 -0.031,-0.034 -0.033,-0.034 -0.003,-0.001 0.021,0.025 0.037,0.039 0.043,0.039 0.002,0 0.005,-0.002 0.007,-0.005 z m -0.182,-0.067 c 0.001,-0.002 0.001,-0.002 -0.001,10e-4 -10e-4,0.002 -0.002,0.008 -0.002,0.013 l 0.001,0.008 10e-4,-0.009 c 0,-0.006 0.001,-0.012 0.002,-0.014 z m 0.11,0.008 c 0,-0.001 -0.006,-0.006 -0.012,-0.011 -0.013,-0.01 -0.035,-0.022 -0.041,-0.021 -0.002,0 10e-4,0.002 0.006,0.004 0.01,0.003 0.035,0.019 0.042,0.026 0.004,0.004 0.005,0.004 0.005,0.002 z m -0.09,-0.029 c 0.003,-0.002 0.004,-0.003 0.002,-0.003 -0.004,0 -0.017,0.01 -0.019,0.016 -0.001,0.002 0.001,0.001 0.005,-0.003 0.003,-0.004 0.009,-0.008 0.012,-0.01 z m 0.009,-0.005 c 0,-10e-4 -0.001,-10e-4 -0.002,0 -0.001,0.001 -0.001,0.001 10e-4,0.001 0.001,0.001 0.002,0 0.001,-0.001 z m 0.022,0 c -0.002,-10e-4 -0.004,-10e-4 -0.005,0 -0.002,0.001 0,0.001 0.002,0.001 0.003,0 0.004,0 0.003,-0.001 z m -0.093,-0.005 c -0.003,0 -0.007,0 -0.01,0 -0.002,0.001 0,0.001 0.005,0.001 0.005,0 0.007,0 0.005,-0.001 z m -0.02,-0.005 c -0.006,-0.005 -0.011,-0.013 -0.013,-0.022 -0.001,-0.003 -0.002,-0.004 -0.002,-0.002 0,0.009 0.013,0.028 0.019,0.028 0.001,0 -0.001,-0.002 -0.004,-0.004 z m 0.034,0.002 c 0.004,-0.003 0,-0.003 -0.005,0 -0.003,0.001 -0.003,0.002 0,0.002 0.001,0 0.004,-0.001 0.005,-0.002 z m 0.164,-0.016 c -0.003,-0.001 -0.008,-0.001 -0.011,0 -0.003,0 -0.001,10e-4 0.005,10e-4 0.006,0 0.009,-10e-4 0.006,-10e-4 z M 18.26,18.053 c -0.002,0 -0.006,0 -0.009,0 -0.002,10e-4 0,10e-4 0.004,10e-4 0.005,0 0.007,0 0.005,-10e-4 z m -0.016,-0.002 c -0.001,-10e-4 -0.004,-10e-4 -0.005,0 -0.002,0.001 -0.001,0.001 0.002,0.001 0.003,0 0.005,0 0.003,-0.001 z m -0.01,-0.002 c -0.001,-0.001 -0.003,-0.001 -0.005,0 -10e-4,0 0,0.001 0.002,0.001 0.002,0 0.004,-0.001 0.003,-0.001 z m -0.166,-0.027 c -0.001,-0.003 -0.001,0 -0.001,0.007 0,0.007 0,0.01 0.001,0.006 0,-0.003 0,-0.009 0,-0.013 z m 0.016,-0.068 c 0.013,-0.043 0.022,-0.098 0.023,-0.132 0,-0.023 -10e-4,-0.029 -0.007,-0.029 -0.011,0 -0.027,0.049 -0.031,0.095 0,0.012 -10e-4,0.022 0,0.022 0,0.001 0.001,-0.01 0.002,-0.023 0.004,-0.041 0.015,-0.079 0.026,-0.089 0.006,-0.006 0.008,0 0.008,0.021 0,0.035 -0.006,0.072 -0.023,0.132 -0.005,0.02 -0.01,0.037 -0.011,0.039 0,0.005 0.008,-0.019 0.013,-0.036 z m -0.057,0.028 c 0.006,-0.004 0.01,-0.007 0.011,-0.008 0,-0.001 -0.004,0.001 -0.01,0.005 -0.005,0.003 -0.013,0.007 -0.018,0.008 -0.012,0.002 -0.015,-0.004 -0.011,-0.027 0,-0.002 0,-0.001 -10e-4,0.003 -0.003,0.01 -0.003,0.017 10e-4,0.023 0.002,0.004 0.004,0.005 0.011,0.004 0.004,-10e-4 0.012,-0.005 0.017,-0.008 z m 0.022,-0.022 c 0.006,-0.008 0.016,-0.029 0.016,-0.033 0,-0.001 -0.003,0.004 -0.006,0.012 -0.003,0.008 -0.009,0.018 -0.013,0.023 -0.003,0.004 -0.006,0.008 -0.006,0.009 0,0.001 0.003,-0.002 0.009,-0.011 z"
       inkscape:connector-curvature="0"
       style="fill:#006a4e" />
    <path
       id="path_17"
       d="m 2.603,16.011 c 0,0.03 -0.005,0.059 -0.014,0.085 -0.009,0.026 -0.021,0.047 -0.037,0.062 -0.015,0.015 -0.032,0.023 -0.05,0.023 -0.018,0 -0.035,-0.008 -0.05,-0.023 C 2.436,16.143 2.424,16.122 2.415,16.096 2.406,16.07 2.401,16.041 2.401,16.011 c 0,-0.03 0.005,-0.059 0.014,-0.085 0.009,-0.026 0.021,-0.047 0.037,-0.062 0.015,-0.015 0.032,-0.023 0.05,-0.023 0.018,0 0.035,0.008 0.05,0.023 0.016,0.015 0.028,0.036 0.037,0.062 0.009,0.026 0.014,0.055 0.014,0.085 z"
       inkscape:connector-curvature="0"
       style="fill:#ff0000" />
    <path
       id="path_18"
       d="M 2.644,3.134 C 2.437,3.278 2.463,3.63 2.468,3.904 2.433,4.2 2.6,4.501 2.817,4.466 2.977,4.47 3.168,4.457 3.31,4.473 3.078,4.828 2.9,5.352 3.003,5.842 3.141,6.253 3.559,6.313 3.808,6.085 3.973,5.94 3.975,5.65 4.035,5.42 4.189,5.066 4.527,5.089 4.783,5.103 5.026,5.096 5.306,5.419 5.222,5.789 4.964,6.315 4.476,6.44 4.066,6.474 3.705,6.525 3.342,6.393 2.984,6.467 2.657,6.559 2.57,7.209 2.794,7.525 2.988,7.787 3.263,7.878 3.491,8.064 4.457,8.71 5.415,9.382 6.394,9.989 6.683,10.116 7.032,9.752 6.98,9.303 6.94,8.9 6.619,8.792 6.408,8.619 5.915,8.277 5.418,7.945 4.924,7.607 5.332,7.457 5.726,7.177 5.997,6.705 6.19,6.411 6.297,6.008 6.26,5.604 6.272,5.182 6.146,4.773 5.945,4.468 6.15,4.449 6.442,4.552 6.55,4.224 6.626,3.994 6.585,3.715 6.581,3.469 6.562,3.16 6.319,3.05 6.133,3.093 5.006,3.098 3.878,3.084 2.752,3.1 2.716,3.112 2.68,3.123 2.644,3.134 Z"
       inkscape:connector-curvature="0"
       style="fill:#f42a41" />
    <path
       id="path_19"
       d="M 1.897,0.401 C 1.664,0.386 1.38,0.54 1.35,0.916 1.339,1.373 1.461,1.849 1.681,2.185 2.054,2.711 2.612,2.748 3.101,2.845 3.619,2.939 4.145,2.891 4.656,2.984 4.836,3.028 4.994,3.165 5.116,3.355 5.297,3.538 5.538,3.421 5.745,3.454 5.969,3.498 6.171,3.155 6.075,2.853 5.849,2.079 5.254,1.668 4.697,1.584 4.034,1.486 3.363,1.565 2.702,1.441 2.517,1.41 2.372,1.186 2.37,0.919 2.337,0.59 2.125,0.373 1.897,0.401 Z"
       inkscape:connector-curvature="0"
       style="fill:#f42a41" />
  </g>
  <rect
     style="fill:#ffffff;fill-opacity:0.83137256"
     id="rect3734"
     width="1264.8136"
     height="1067.1864"
     x="10.779661"
     y="9.2203417" />
  <flowRoot
     xml:space="preserve"
     id="flowRoot4549"
     style="font-style:normal;font-weight:normal;font-size:40px;line-height:1.25;font-family:sans-serif;letter-spacing:0px;word-spacing:0px;fill:#000000;fill-opacity:1;stroke:none"
     transform="matrix(2.3319237,0,0,7.4918136,-655.67249,-2590.9858)"><flowRegion
       id="flowRegion4551"><rect
         id="rect4553"
         width="487.83878"
         height="269.07999"
         x="335.00867"
         y="383.32678" /></flowRegion><flowPara
       id="flowPara4555"
       style="font-style:oblique;font-variant:normal;font-weight:normal;font-stretch:normal;font-size:28.91379929px;line-height:0.25;font-family:'Latin Modern Mono Caps';-inkscape-font-specification:'Latin Modern Mono Caps Oblique';text-align:start;text-anchor:start;fill:#ff0000;fill-opacity:1">Image Type not supported yet!</flowPara></flowRoot></svg>
